<svg version="1.1" xmlns="http://www.w3.org/2000/svg" xmlns:xlink="http://www.w3.org/1999/xlink" x="0px" y="0px" viewBox="0 0 51 39" enable-background="new 0 0 51 39" xml:space="preserve">
<path fill-rule="evenodd" clip-rule="evenodd" fill="#ffffff" d="M3,0v16.501c1.379,0.28,2.714,0.679,4,1.175V4h40v28H21.323
  c0.497,1.286,0.896,2.621,1.176,4H51V0H3z"/>
<path fill="#ffffff" d="M0,33.262V39h5.737C5.014,36.192,2.808,33.986,0,33.262"/>
<path fill="#ffffff" d="M0,26.148v4.042c4.47,0.822,7.987,4.34,8.81,8.81h4.042C11.959,32.319,6.681,27.041,0,26.148"/>
<path fill="#ffffff" d="M0,19.095v4.022C8.342,24.041,14.96,30.657,15.883,39h4.022C18.954,28.446,10.554,20.047,0,19.095"/>
</svg>
